<svg width="800" height="800" viewBox="0 0 512 512" xml:space="preserve" xmlns="http://www.w3.org/2000/svg"><style>.st1{fill:#474747}</style><g id="Layer_2"><path class="st1" d="M198.29 462.06c.03.06.07.12.1.19.05.1.1.2.16.3.36.72.74 1.44 1.12 2.16a6.993 6.993 0 0 0 5.61 3.77c.09.01.18.01.26.01.11.01.23.02.35.02h.01c.2 0 .4-.01.59-.03.04 0 .07 0 .11-.01.19-.02.39-.05.58-.09.04-.01.08-.01.12-.02.19-.04.38-.09.57-.15l.1-.03c.2-.06.4-.14.59-.22.02-.01.03-.01.05-.02.95-.4 1.82-1 2.53-1.81l.33-.37c.33-.38.66-.75.99-1.13.01-.01.01-.02.02-.03 36.87-41.24 76.14-69.28 110.79-94.03 12.83-9.16 24.94-17.81 36.41-26.71 28.85-22.38 57.59-48.79 72.46-90.14 5.41-15.03 8.7-31.07 10.06-49.05 4.12-54.71-7.19-109.16-32.72-157.45a6.984 6.984 0 0 0-5.31-3.67 7 7 0 0 0-6.06 2.24c-7.22 7.95-15.45 15.89-25.18 24.3a6.99 6.99 0 0 0-.72 9.87 6.99 6.99 0 0 0 9.87.72c7.2-6.21 13.63-12.21 19.46-18.15 21.15 43.73 30.37 92.3 26.7 141.09-1.06 14-3.36 26.69-7.01 38.58-.54-.2-1.09-.38-1.64-.57-.49-.17-.98-.34-1.48-.51a178.8 178.8 0 0 0-3.72-1.21c-.23-.07-.47-.15-.7-.23-1.46-.45-2.94-.89-4.41-1.31l-1.42-.39a180.2 180.2 0 0 0-3.12-.84l-1.63-.42c-1.04-.26-2.08-.51-3.13-.76-.48-.11-.97-.23-1.45-.34-1.49-.34-2.98-.66-4.47-.97l-.76-.15c-1.27-.26-2.53-.5-3.8-.74-.54-.1-1.07-.19-1.61-.29a274.687 274.687 0 0 0-4.71-.79c-1.09-.17-2.17-.33-3.26-.49-.44-.06-.88-.13-1.32-.19-1.48-.21-2.97-.4-4.45-.58l-1.3-.15c-1.09-.13-2.17-.25-3.25-.36-.56-.06-1.12-.11-1.68-.17-.99-.1-1.97-.18-2.96-.27-.54-.05-1.08-.09-1.62-.14-1.18-.09-2.37-.18-3.54-.26-.31-.02-.62-.05-.93-.07-1.45-.09-2.89-.17-4.33-.24l-1.5-.06c-.98-.04-1.97-.08-2.94-.11-.55-.02-1.1-.03-1.65-.05-.97-.03-1.93-.05-2.89-.06-.49-.01-.98-.02-1.47-.02-1.4-.02-2.79-.02-4.17-.02-.25 0-.5.01-.75.01-1.16.01-2.32.02-3.46.04l-1.49.03c-.91.02-1.82.04-2.72.07-.51.02-1.01.03-1.52.05l-2.89.12c-.38.02-.77.03-1.15.05-1.31.07-2.6.14-3.88.23-.35.02-.69.05-1.03.07l-2.85.21c-.46.04-.91.07-1.36.11-.85.07-1.69.15-2.53.23l-1.27.12c-1.01.1-2 .2-2.98.31-.22.02-.44.05-.65.07-1.18.13-2.34.28-3.48.42-.35.04-.68.09-1.02.14l-1.58.21.06-.06c1.98-1.97 4-3.92 6.04-5.86.63-.59 1.26-1.17 1.89-1.76 1.46-1.36 2.93-2.71 4.41-4.04.74-.66 1.48-1.32 2.23-1.98 1.48-1.31 2.98-2.61 4.5-3.9.68-.58 1.36-1.17 2.05-1.74 2.18-1.83 4.38-3.64 6.62-5.42 2.1-1.67 4.23-3.33 6.33-4.93 22.06-16.78 39.33-34.34 51.33-52.19a6.997 6.997 0 0 0-11.61-7.81c-10.65 15.84-25.96 31.57-45.51 46.79-.06-.28-.12-.57-.17-.86-.07-.32-.13-.64-.2-.97-.07-.32-.14-.64-.2-.97-.07-.34-.15-.68-.22-1.03-.07-.33-.15-.66-.22-1-.08-.35-.16-.7-.24-1.06-.08-.34-.16-.69-.24-1.04-.08-.36-.17-.71-.25-1.08-.09-.36-.18-.73-.26-1.09-.09-.36-.17-.72-.26-1.09-.1-.39-.2-.79-.3-1.19l-.33-1.29c-.17-.65-.34-1.3-.52-1.97l-.3-1.11c-.11-.41-.22-.81-.34-1.23-.11-.38-.22-.76-.32-1.14-.12-.41-.23-.82-.35-1.23-.11-.39-.23-.79-.35-1.19-.12-.41-.24-.81-.37-1.22-.12-.4-.25-.81-.37-1.21-.13-.41-.26-.82-.39-1.24-.13-.41-.26-.81-.39-1.22-.13-.42-.27-.83-.41-1.25-.14-.41-.28-.83-.42-1.24-.14-.42-.28-.84-.43-1.26-.14-.42-.29-.83-.44-1.25-.15-.42-.3-.85-.46-1.28-.15-.41-.3-.83-.45-1.25-.16-.43-.32-.87-.49-1.3-.16-.41-.31-.82-.47-1.24-.17-.44-.34-.88-.52-1.32a62.9 62.9 0 0 0-.49-1.23c-.18-.45-.37-.9-.56-1.35-.17-.4-.33-.8-.5-1.2-.2-.47-.4-.94-.61-1.41-.17-.38-.33-.76-.5-1.15-.23-.52-.47-1.04-.7-1.56l-.45-.99c-.39-.84-.78-1.67-1.19-2.51-.12-.24-.24-.48-.35-.71-.3-.61-.6-1.21-.91-1.82-.17-.33-.34-.66-.52-.99-.26-.51-.53-1.02-.8-1.52-.19-.36-.39-.71-.58-1.07-.21-.38-.41-.76-.62-1.13 2.79-2.01 5.58-4.01 8.36-6.01 7.25-5.21 14.75-10.59 22.01-15.91 3.12-2.29 3.79-6.67 1.5-9.78-2.29-3.12-6.67-3.79-9.78-1.5-7.2 5.28-14.67 10.64-21.89 15.83-4.52 3.25-9.06 6.5-13.58 9.78-32.06 23.21-65.47 48.51-90.7 80.1-11.88 14.87-20.93 29.81-27.67 45.69v.01c-7.41 17.44-11.91 36.1-13.37 55.46-2.36 31.41.37 62.76 7.96 92.91-11.08-14.58-22.24-27.69-32.74-40.01-37.8-44.37-67.65-79.42-57.06-141.11 6.45-37.55 22.41-72.53 46.36-101.78 13.42 22.76 29.48 41.87 47.76 63.61 2.93 3.49 5.93 7.05 8.98 10.71a6.997 6.997 0 0 0 9.86.89 6.997 6.997 0 0 0 .89-9.86c-3.06-3.67-6.07-7.25-9.01-10.75-20.08-23.9-37.43-44.54-51.11-70.05a6.986 6.986 0 0 0-11.37-1.36c-29.28 32.63-48.7 72.83-56.15 116.23-11.7 68.15 21.62 107.26 60.2 152.55 21.66 25.6 46.3 54.52 66.65 92.84zm155.63-131.45c-.5-.14-1.01-.27-1.51-.4-.45-.12-.9-.24-1.34-.36-.61-.16-1.23-.3-1.84-.45l-1.25-.3c-.7-.16-1.39-.31-2.09-.46-.34-.07-.68-.15-1.02-.22-2.08-.43-4.18-.81-6.28-1.15-.35-.06-.69-.1-1.04-.16-.71-.11-1.41-.22-2.12-.32-.41-.06-.83-.11-1.24-.16-.64-.09-1.28-.17-1.92-.25l-1.33-.15-1.84-.21c-.46-.05-.92-.09-1.39-.13-.59-.06-1.19-.12-1.78-.17-.48-.04-.95-.08-1.43-.11-.58-.05-1.16-.09-1.74-.13l-1.44-.09c-.58-.04-1.15-.07-1.73-.1-.48-.03-.97-.05-1.45-.07-.57-.03-1.14-.05-1.7-.07-.49-.02-.97-.03-1.46-.05-.56-.02-1.13-.03-1.69-.05-.49-.01-.97-.02-1.46-.02-.56-.01-1.11-.02-1.67-.02h-3.11c-.49 0-.98.01-1.46.02l-1.63.03-1.46.03c-.54.01-1.08.03-1.61.05-.49.02-.98.03-1.46.05-.53.02-1.06.04-1.58.07-.49.02-.97.05-1.45.07l-1.57.09-1.43.09c-.52.03-1.04.07-1.55.1-.48.03-.95.07-1.42.1l-1.53.12-1.41.12c-.51.04-1.01.09-1.51.14-.46.04-.93.09-1.39.13l-1.49.15c-.46.05-.92.09-1.37.14-.49.05-.98.11-1.47.16l-1.34.15-1.47.18c-.43.05-.87.11-1.3.16-.49.06-.97.13-1.45.19-.43.06-.85.11-1.28.17-.47.06-.94.13-1.4.2l-1.26.18-1.42.21-1.18.18c-.51.08-1.02.16-1.52.24-.34.05-.68.11-1.02.16-.57.09-1.13.19-1.69.28-.27.04-.54.09-.8.13-.82.14-1.63.28-2.42.43-.48.09-.93.22-1.36.39-3.02 1.21-4.89 4.41-4.29 7.74a6.978 6.978 0 0 0 3.47 4.86c1.37.77 3 1.08 4.66.79a524.915 524.915 0 0 1 4.2-.73c1.2-.2 2.42-.39 3.66-.58l.62-.09c1.29-.19 2.6-.38 3.93-.56l.19-.03c1.33-.18 2.68-.35 4.05-.52.13-.02.26-.03.39-.05 1.36-.16 2.75-.32 4.14-.46l.63-.06c1.41-.14 2.83-.28 4.27-.4l.39-.03c1.47-.12 2.95-.23 4.45-.33.04 0 .08-.01.12-.01 1.48-.1 2.98-.18 4.49-.24l.64-.03c1.47-.06 2.96-.11 4.45-.15.2 0 .39-.01.59-.01 3.08-.06 6.19-.06 9.32.02.2.01.41.01.61.01 1.5.04 3.01.1 4.52.18.24.01.49.03.73.04 1.54.09 3.07.19 4.61.32l.3.03c1.5.13 3 .28 4.5.45l.53.06a137.906 137.906 0 0 1 5.3.71c1.48.22 2.96.47 4.43.74.07.01.14.03.2.04-7.78 5.76-15.89 11.55-24.3 17.56-33.54 23.96-71.34 50.97-107.58 90.06-21.07-43.65-30.27-92.19-26.6-140.88 1.16-15.42 4.41-30.35 9.68-44.47.35.17.7.34 1.04.51.19.09.38.19.57.28.28.14.55.28.82.42.43.22.87.45 1.29.68.04.02.09.05.13.07.34.18.67.37 1.01.55.44.25.89.49 1.32.74.34.19.67.39 1.01.59.43.25.85.51 1.27.76.29.18.57.35.86.53.06.04.12.08.18.11.39.25.78.49 1.16.74.25.16.5.33.75.49.07.05.15.1.22.15.39.26.77.52 1.16.79.3.2.59.41.88.61.4.28.79.57 1.18.86.27.2.55.4.82.6.4.3.8.61 1.2.92.24.19.49.38.73.57.44.35.86.7 1.29 1.05.14.12.28.23.42.34.18.15.35.3.53.45.39.33.77.65 1.15.98.22.19.43.38.65.58.35.31.69.62 1.03.93.2.18.39.36.59.54.07.06.13.12.2.19.29.27.58.54.86.82.15.15.3.29.45.44l.42.42c.27.27.54.53.8.8l.22.22c.19.19.38.39.56.58.3.31.6.62.89.94.2.22.4.44.61.66.28.31.56.61.84.92.2.22.39.44.59.66.27.3.53.61.79.91.19.22.38.44.56.66l.76.91.53.65c.25.31.49.62.73.92.16.21.33.42.49.63.24.31.48.63.71.94l.45.6.72.99c.11.16.23.31.33.47.07.09.13.19.2.28.21.3.41.59.61.88.05.07.1.15.15.22.11.16.22.32.32.48a50.05 50.05 0 0 1 .96 1.46c.2.31.39.61.59.92.09.15.19.3.28.45.05.08.09.15.14.23.17.27.33.54.49.8.05.09.11.18.16.27.09.15.17.29.26.44.17.29.35.58.51.87.11.18.21.36.31.55.15.27.3.54.45.8.1.19.2.37.31.56.14.25.28.5.41.75.1.18.19.36.29.54.07.13.13.26.2.39-.18.36-.36.73-.55 1.1-.36.72-.72 1.45-1.08 2.18-.23.47-.47.94-.7 1.41-.22.44-.42.9-.64 1.34-.35.72-.69 1.45-1.03 2.17-.44.93-.87 1.87-1.3 2.8-.33.72-.66 1.45-.99 2.17-.43.95-.85 1.91-1.27 2.86-.31.71-.63 1.43-.94 2.15-.42.99-.84 1.98-1.25 2.97-.29.69-.58 1.39-.87 2.08-.02.06-.05.11-.07.16-.06.15-.13.3-.19.45-.34.84-.67 1.68-1 2.52-.26.65-.52 1.29-.77 1.94-.22.57-.44 1.14-.66 1.72-.23.6-.46 1.21-.69 1.81-.2.53-.4 1.06-.6 1.58-.63 1.71-1.25 3.42-1.86 5.14-.79 2.26-1.56 4.53-2.3 6.81-.26.78-.5 1.58-.75 2.36-.48 1.5-.95 2.99-1.41 4.5-.29.95-.56 1.91-.84 2.86-.4 1.35-.79 2.7-1.17 4.06-.28 1.02-.55 2.03-.82 3.05-.35 1.31-.7 2.62-1.03 3.93-.26 1.04-.52 2.08-.77 3.12-.32 1.31-.63 2.61-.94 3.92-.24 1.04-.48 2.09-.71 3.13-.29 1.32-.58 2.65-.85 3.98l-.63 3.09c-.27 1.36-.53 2.72-.78 4.08-.19 1.01-.37 2.01-.55 3.02-.08.45-.17.9-.24 1.35-.02.14-.03.28-.05.42-.25 1.5-.52 3-.75 4.5a7.005 7.005 0 0 0 5.85 7.99c3.82.59 7.4-2.03 7.99-5.85.31-1.99.65-3.98 1-5.97.17-.98.35-1.96.53-2.94.24-1.28.48-2.57.73-3.85.2-1 .4-2 .61-3 .26-1.25.53-2.51.81-3.76.22-1.01.45-2.03.69-3.04.29-1.24.58-2.47.88-3.71.25-1.01.49-2.02.75-3.03.32-1.24.65-2.48.98-3.72.26-.99.53-1.97.8-2.96.36-1.29.73-2.57 1.11-3.85.27-.93.53-1.85.81-2.77.43-1.42.88-2.83 1.33-4.24.25-.78.48-1.56.74-2.33.69-2.12 1.41-4.23 2.14-6.34.02-.06.04-.11.06-.17 4.79-13.67 10.61-27.1 17.28-39.91.03-.05.05-.1.07-.15.59-1.13 1.2-2.25 1.8-3.37.45-.84.89-1.69 1.35-2.53.63-1.14 1.28-2.28 1.92-3.41.46-.82.92-1.64 1.39-2.46.72-1.24 1.45-2.46 2.19-3.69.42-.7.83-1.41 1.25-2.11 1.17-1.92 2.36-3.83 3.56-5.71 1.01-1.58 2.03-3.14 3.07-4.71.33-.5.68-1 1.02-1.5.71-1.06 1.42-2.11 2.15-3.16.42-.6.84-1.19 1.26-1.79.66-.94 1.33-1.89 2-2.83.46-.64.93-1.27 1.39-1.9.65-.89 1.3-1.78 1.97-2.67.49-.65.99-1.3 1.48-1.95.65-.86 1.3-1.71 1.97-2.56.51-.66 1.04-1.32 1.56-1.98.66-.83 1.31-1.66 1.98-2.48l1.62-1.98c.66-.81 1.33-1.61 2-2.41l1.68-1.98 1.29-1.5 2.01-.51c.82-.2 1.68-.41 2.56-.6.29-.07.6-.13.9-.19.61-.13 1.21-.26 1.84-.39.38-.08.78-.15 1.16-.23.58-.11 1.15-.22 1.74-.33.43-.08.88-.15 1.32-.23.58-.1 1.16-.2 1.75-.3.47-.08.95-.15 1.43-.22.6-.09 1.19-.19 1.8-.28l1.52-.21c.61-.08 1.22-.17 1.84-.25.53-.07 1.07-.13 1.61-.2.63-.08 1.26-.15 1.91-.23l1.67-.18c.65-.07 1.31-.14 1.97-.2.57-.06 1.16-.11 1.74-.16l2.02-.18c.59-.05 1.2-.1 1.8-.14l2.08-.15 1.85-.12 2.13-.12c.63-.03 1.27-.07 1.9-.1l2.18-.09c.65-.02 1.29-.05 1.95-.07l2.24-.06c.66-.02 1.31-.03 1.98-.04l2.29-.03c.67-.01 1.33-.01 2-.01.77 0 1.55 0 2.34.01a192.127 192.127 0 0 1 4.43.07c.67.02 1.35.03 2.03.05.82.02 1.65.06 2.47.09.67.03 1.33.05 2.01.08.85.04 1.71.09 2.57.14.65.04 1.31.07 1.96.11.89.06 1.79.12 2.69.19.63.05 1.25.09 1.88.14.98.08 1.97.17 2.95.26.55.05 1.09.09 1.64.15 1.36.13 2.72.28 4.08.44l.53.06c1.54.18 3.09.38 4.64.59.46.06.92.14 1.38.2 1.09.15 2.18.31 3.26.48.58.09 1.17.19 1.75.29.96.16 1.93.31 2.89.48.64.11 1.27.24 1.91.36.91.17 1.81.34 2.72.52.66.13 1.32.28 1.99.42.88.18 1.75.37 2.63.56.67.15 1.34.31 2.02.47.86.2 1.72.4 2.57.61.68.17 1.36.35 2.03.52.84.22 1.68.44 2.52.67a232.23 232.23 0 0 1 4.52 1.31l2.03.63c.82.26 1.63.52 2.44.79.67.22 1.34.46 2.01.69l1.35.48c-13.76 33.09-37.92 55.78-62.58 75.16zM200.83 241.8c5.04-9.11 11.05-18.01 18.15-26.9 22.53-28.21 52.4-51.55 81.72-72.95.36.66.71 1.33 1.06 1.99.11.21.21.42.32.63.25.48.49.96.73 1.45.14.28.27.56.41.83.2.42.41.83.61 1.25.14.3.29.61.43.91.18.39.37.79.55 1.18.14.32.29.63.43.95.17.38.34.77.51 1.15.14.32.28.65.42.97l.48 1.14c.14.33.27.65.41.98.16.38.31.76.46 1.14.13.32.26.65.39.97.15.39.3.77.45 1.16.12.32.25.63.37.95.15.41.3.81.45 1.21.11.29.22.59.33.88.19.52.37 1.03.56 1.55.13.35.25.71.37 1.06.17.5.35 1 .52 1.5.1.3.2.59.3.89l.39 1.17c.1.32.2.63.3.95.12.37.23.73.35 1.09l.3.96c.11.35.22.71.32 1.06.1.32.19.64.28.95.1.35.21.7.31 1.05.09.32.18.63.27.94.1.34.19.69.29 1.03.09.31.17.62.26.93.1.35.19.69.28 1.03.08.3.16.59.24.88.1.36.19.72.28 1.08.07.27.14.54.21.8l.3 1.22c.05.21.11.42.16.63.15.6.29 1.19.43 1.78l.15.63c.09.38.18.76.26 1.14.06.24.11.48.16.72.08.34.15.68.23 1.01.05.25.11.49.16.73.07.31.14.63.2.93.05.25.1.5.16.74.06.3.12.6.18.89.05.24.1.48.14.71.06.29.12.58.17.86.04.23.09.46.13.68.06.29.11.58.16.86l.12.62c.06.3.11.59.16.88.03.18.07.36.1.53.06.33.12.65.17.97.02.13.05.26.07.39.08.44.15.87.22 1.29a337.541 337.541 0 0 0-11.6 9.9c-3.04 2.71-6.02 5.46-8.95 8.26-3.28 3.13-6.48 6.32-9.61 9.56-3.8 3.93-7.5 7.93-11.06 11.99-10.7 12.22-20.5 25.25-29.11 38.73a287.58 287.58 0 0 0-3.91 6.29c-.43.7-.83 1.41-1.25 2.12-.85 1.42-1.69 2.84-2.52 4.28-.1.17-.21.34-.3.52-.01-.01-.01-.02-.02-.02-.1-.16-.21-.32-.31-.49-.17-.27-.35-.54-.53-.81-.18-.28-.37-.57-.56-.85-.09-.13-.17-.26-.26-.39-.11-.16-.22-.32-.32-.48l-.63-.9c-.19-.28-.39-.55-.59-.83l-.07-.1-.08-.11c-.17-.24-.35-.47-.52-.71-.2-.28-.41-.56-.61-.84-.17-.23-.35-.47-.53-.7-.13-.17-.26-.34-.39-.52-.14-.19-.28-.38-.43-.56l-.79-1c-.21-.26-.41-.52-.62-.78a.138.138 0 0 1-.03-.04c-.34-.42-.69-.84-1.05-1.26-.29-.35-.59-.7-.89-1.05-.16-.19-.33-.38-.5-.58l-.58-.67c-.24-.27-.48-.53-.72-.8s-.49-.54-.74-.81l-.06-.06c-.04-.04-.08-.09-.12-.13-.26-.28-.53-.56-.8-.85-.3-.32-.61-.64-.92-.96-.16-.17-.33-.34-.5-.51l-.45-.45c-.28-.28-.56-.57-.85-.85-.29-.29-.6-.58-.9-.87-.2-.19-.39-.38-.59-.57-.02-.01-.03-.03-.05-.04-.11-.11-.23-.21-.34-.32-.31-.29-.62-.57-.94-.86-.34-.31-.68-.62-1.02-.92-.17-.15-.33-.3-.5-.45-.04-.04-.09-.08-.14-.12-.11-.1-.22-.19-.33-.29-.35-.3-.7-.61-1.06-.91-.33-.28-.67-.57-1.01-.85-.15-.13-.3-.25-.45-.38-.01-.01-.03-.02-.04-.03-.2-.17-.42-.33-.62-.5-.35-.28-.69-.55-1.05-.83-.38-.3-.77-.59-1.16-.89-.16-.12-.32-.24-.48-.37-.2-.15-.41-.3-.62-.46-.4-.3-.82-.59-1.23-.89-.37-.26-.73-.52-1.1-.78-.09-.06-.18-.13-.27-.19-.01-.01-.02-.02-.03-.02-.33-.23-.67-.45-1.01-.68-.37-.25-.73-.5-1.11-.75-.34-.22-.69-.44-1.03-.66-.24-.16-.48-.31-.73-.46-.25-.16-.5-.32-.75-.47-.54-.33-1.09-.66-1.64-.98-.32-.19-.64-.39-.96-.57-.02-.01-.03-.02-.05-.03-.01 0-.01-.01-.02-.01-.86-.5-1.73-.98-2.61-1.46l-.51-.27c-.12-.07-.25-.13-.37-.2-.3-.16-.6-.31-.9-.47-.34-.18-.67-.36-1.02-.53-.35-.18-.71-.34-1.06-.52-.54-.26-1.06-.53-1.61-.79 1.5-3.07 3.07-6.13 4.75-9.17z"/><path class="st1" d="M357.63 98.6c1.52 0 3.04-.49 4.33-1.5l.29-.23c3.03-2.4 3.54-6.8 1.14-9.83-2.4-3.03-6.81-3.54-9.83-1.14l-.26.21c-3.04 2.39-3.56 6.79-1.17 9.83a6.983 6.983 0 0 0 5.5 2.66zM390.11 132.11c.38.25.79.47 1.21.65.42.17.86.3 1.31.4a7.061 7.061 0 0 0 6.32-1.92c1.3-1.3 2.05-3.1 2.05-4.95a7.043 7.043 0 0 0-1.18-3.88c-.26-.39-.55-.75-.87-1.07-1.63-1.62-4.04-2.37-6.32-1.91-.45.09-.89.22-1.31.4-.42.17-.83.39-1.21.64-.38.26-.74.55-1.06.87s-.62.68-.87 1.07c-.25.38-.47.78-.65 1.2-.17.43-.3.87-.39 1.31-.1.46-.14.92-.14 1.37 0 1.85.75 3.65 2.05 4.95.32.32.68.62 1.06.87z"/></g></svg>