<svg fill="#fff" xmlns="http://www.w3.org/2000/svg" width="800" height="800" viewBox="0 0 82.413 82.412" xml:space="preserve"><path d="M71.215 40.861 82.008 22.16 69.853 1.102H45.539l-11 19.049h-22.39L0 41.207l12.156 21.056h22.793l10.997 19.048h24.312l12.155-21.053-11.198-19.397zM47.855 5.118h19.678l9.839 17.039-9.839 17.037H47.855l-9.836-17.037 9.836-17.039zM34.153 58.245H14.476L4.639 41.207l9.837-17.04h19.678l9.835 17.04-9.836 17.038zm33.784 19.048H48.259l-9.835-17.035 9.835-17.043h19.678l9.835 17.043-9.835 17.035z"/><path d="M16.208 27.053 8.112 41.176l7.664 14.541 2.668-1.407-6.898-13.076 7.272-12.686zM71.914 22.773l2.532-1.626-9.148-14.248H49.581v3.01h14.071zM67.139 46.018l-2.652 1.42 6.961 12.984-6.933 11.82 2.594 1.529 7.795-13.284z"/></svg>